# xmcd
#
# Track frame offsets:
#	183
#	13548
#	27230
#	38323
#	48325
#	58775
#	69530
#	81240
#	96448
#	108888
#	121165
#	134165
#	151518
#	166648
#	177343
#	197963
#	211330
#	223100
#	235728
#	248138
#
# Disc length: 3463
#
# Revision: 1
# Processed by: cddbd v1.5.1PL0 Copyright (c) Steve Scherf et al.
# Submitted via: ExactAudioCopy v0.90b4
# Normalized: r0:DSETVAR1,TDELIM( - )
#
DISCID=0b0d8514
DTITLE=Various Artist - This Is Soull Volume 2
DYEAR=1994
DGENRE=Soul
TTITLE0=Jackie Wilson - Higher And Higher
TTITLE1=Joe Tex - One Monkey Don't Stop No Show
TTITLE2=Benny Spellman - Lipstick Traces
TTITLE3=Ernie K-Doe - I Cried My Last Tear
TTITLE4=Betty Everett - You're No Good
TTITLE5=The Tams - Hey Girl, Don't Bother Me
TTITLE6=Etta James - I'd Rather Go Blind
TTITLE7=Chuck Jackson - Any Day Now
TTITLE8=Jerry Butler - He Will Break Your Heart
TTITLE9=Billy Stewart - Summertime
TTITLE10=Sugar Pie Desanto - Soulful Dress
TTITLE11=Johnny Adams - Reconsider Me
TTITLE12=Peggy Scott - Every Little Bit Hurts
TTITLE13=Timi Yuro - Hurt
TTITLE14=Solomon Burke - Boo Hoo Hoo
TTITLE15=Percy Sledge - When A Man Loves A Woman
TTITLE16=Robert Parker - Barefootin'
TTITLE17=Syl Johnson - Dress Too Short
TTITLE18=Irma Thomas - Ruler Of My Heart
TTITLE19=Bobby Womack - Lookin' For A Love
EXTD=
EXTT0=
EXTT1=
EXTT2=
EXTT3=
EXTT4=
EXTT5=
EXTT6=
EXTT7=
EXTT8=
EXTT9=
EXTT10=
EXTT11=
EXTT12=
EXTT13=
EXTT14=
EXTT15=
EXTT16=
EXTT17=
EXTT18=
EXTT19=
PLAYORDER=
